<svg width="40" height="40" viewBox="0 0 40 40" fill="none" xmlns="http://www.w3.org/2000/svg">
<path d="M20 3.75C11.0625 3.75 3.75 11.0625 3.75 20C3.75 28.9375 11.0625 36.25 20 36.25C28.9375 36.25 36.25 28.9375 36.25 20C36.25 11.0625 28.9375 3.75 20 3.75ZM20 8.625C22.6797 8.625 24.875 10.8203 24.875 13.5C24.875 16.1797 22.6797 18.375 20 18.375C17.3203 18.375 15.125 16.1797 15.125 13.5C15.125 10.8203 17.3203 8.625 20 8.625ZM20 32.0938C15.9375 32.0938 12.3594 29.9844 10.25 26.8906C10.3281 23.6406 16.75 21.8516 20 21.8516C23.25 21.8516 29.6719 23.6406 29.75 26.8906C27.6406 29.9766 24.0625 32.0938 20 32.0938Z" fill="#4684FE"/>
</svg>
